<mxfile host="app.diagrams.net" modified="2021-11-21T04:21:06.966Z" agent="5.0 (Windows NT 10.0; Win64; x64) AppleWebKit/537.36 (KHTML, like Gecko) Chrome/96.0.4664.45 Safari/537.36" etag="QZs_lQrVumklayge4Oc0" version="15.8.2" type="github">
  <diagram name="Page-1" id="edf60f1a-56cd-e834-aa8a-f176f3a09ee4">
    <mxGraphModel dx="1422" dy="762" grid="0" gridSize="10" guides="1" tooltips="1" connect="1" arrows="1" fold="1" page="1" pageScale="1" pageWidth="4681" pageHeight="3300" background="none" math="0" shadow="0">
      <root>
        <mxCell id="0" />
        <mxCell id="1" parent="0" />
        <mxCell id="1pbeCWkWL_q0rzWC6xPb-18" value="" style="edgeStyle=orthogonalEdgeStyle;rounded=0;orthogonalLoop=1;jettySize=auto;html=1;fontFamily=Helvetica;fontSize=12;" parent="1" source="1pbeCWkWL_q0rzWC6xPb-1" target="1pbeCWkWL_q0rzWC6xPb-3" edge="1">
          <mxGeometry relative="1" as="geometry" />
        </mxCell>
        <mxCell id="1pbeCWkWL_q0rzWC6xPb-1" value="메인 페이지" style="rounded=0;whiteSpace=wrap;html=1;fontFamily=Helvetica;fontSize=12;" parent="1" vertex="1">
          <mxGeometry x="31" y="26" width="120" height="60" as="geometry" />
        </mxCell>
        <mxCell id="1pbeCWkWL_q0rzWC6xPb-20" value="" style="edgeStyle=orthogonalEdgeStyle;rounded=0;orthogonalLoop=1;jettySize=auto;html=1;fontFamily=Helvetica;fontSize=12;" parent="1" source="1pbeCWkWL_q0rzWC6xPb-2" target="1pbeCWkWL_q0rzWC6xPb-4" edge="1">
          <mxGeometry relative="1" as="geometry" />
        </mxCell>
        <mxCell id="1pbeCWkWL_q0rzWC6xPb-2" value="회원가입" style="rounded=0;whiteSpace=wrap;html=1;fontFamily=Helvetica;fontSize=12;" parent="1" vertex="1">
          <mxGeometry x="354" y="26" width="120" height="60" as="geometry" />
        </mxCell>
        <mxCell id="1pbeCWkWL_q0rzWC6xPb-19" value="" style="edgeStyle=orthogonalEdgeStyle;rounded=0;orthogonalLoop=1;jettySize=auto;html=1;fontFamily=Helvetica;fontSize=12;" parent="1" source="1pbeCWkWL_q0rzWC6xPb-3" target="1pbeCWkWL_q0rzWC6xPb-2" edge="1">
          <mxGeometry relative="1" as="geometry" />
        </mxCell>
        <mxCell id="1pbeCWkWL_q0rzWC6xPb-3" value="로그인" style="rounded=0;whiteSpace=wrap;html=1;fontFamily=Helvetica;fontSize=12;" parent="1" vertex="1">
          <mxGeometry x="193" y="26" width="120" height="60" as="geometry" />
        </mxCell>
        <mxCell id="1pbeCWkWL_q0rzWC6xPb-21" value="" style="edgeStyle=orthogonalEdgeStyle;rounded=0;orthogonalLoop=1;jettySize=auto;html=1;fontFamily=Helvetica;fontSize=12;" parent="1" source="1pbeCWkWL_q0rzWC6xPb-4" target="1pbeCWkWL_q0rzWC6xPb-5" edge="1">
          <mxGeometry relative="1" as="geometry" />
        </mxCell>
        <mxCell id="1pbeCWkWL_q0rzWC6xPb-4" value="회원 정보 입력" style="rounded=0;whiteSpace=wrap;html=1;fontFamily=Helvetica;fontSize=12;" parent="1" vertex="1">
          <mxGeometry x="516" y="26" width="120" height="60" as="geometry" />
        </mxCell>
        <mxCell id="1pbeCWkWL_q0rzWC6xPb-5" value="회원 가입 완료" style="rounded=0;whiteSpace=wrap;html=1;fontFamily=Helvetica;fontSize=12;" parent="1" vertex="1">
          <mxGeometry x="677" y="26" width="120" height="60" as="geometry" />
        </mxCell>
        <mxCell id="1pbeCWkWL_q0rzWC6xPb-10" value="" style="edgeStyle=orthogonalEdgeStyle;rounded=0;orthogonalLoop=1;jettySize=auto;html=1;entryX=0.004;entryY=0.457;entryDx=0;entryDy=0;entryPerimeter=0;fontFamily=Helvetica;fontSize=12;" parent="1" source="1pbeCWkWL_q0rzWC6xPb-7" target="1pbeCWkWL_q0rzWC6xPb-9" edge="1">
          <mxGeometry relative="1" as="geometry" />
        </mxCell>
        <mxCell id="1pbeCWkWL_q0rzWC6xPb-28" value="" style="edgeStyle=orthogonalEdgeStyle;rounded=0;orthogonalLoop=1;jettySize=auto;html=1;fontFamily=Helvetica;fontSize=12;" parent="1" source="1pbeCWkWL_q0rzWC6xPb-7" target="1pbeCWkWL_q0rzWC6xPb-27" edge="1">
          <mxGeometry relative="1" as="geometry">
            <Array as="points">
              <mxPoint x="492" y="141" />
              <mxPoint x="492" y="225" />
            </Array>
          </mxGeometry>
        </mxCell>
        <mxCell id="5EfxFIW-50aqXUUSGtKy-3" style="edgeStyle=orthogonalEdgeStyle;rounded=0;orthogonalLoop=1;jettySize=auto;html=1;exitX=0;exitY=0.5;exitDx=0;exitDy=0;startArrow=classic;startFill=1;endArrow=none;endFill=0;fontFamily=Helvetica;fontSize=12;" parent="1" source="1pbeCWkWL_q0rzWC6xPb-7" edge="1">
          <mxGeometry relative="1" as="geometry">
            <mxPoint x="330.0344827586207" y="55.37931034482756" as="targetPoint" />
          </mxGeometry>
        </mxCell>
        <mxCell id="1pbeCWkWL_q0rzWC6xPb-7" value="계정 찾기" style="rounded=0;whiteSpace=wrap;html=1;fontFamily=Helvetica;fontSize=12;" parent="1" vertex="1">
          <mxGeometry x="354" y="111" width="120" height="60" as="geometry" />
        </mxCell>
        <mxCell id="1pbeCWkWL_q0rzWC6xPb-9" value="아이디 찾기" style="rounded=0;whiteSpace=wrap;html=1;fontFamily=Helvetica;fontSize=12;" parent="1" vertex="1">
          <mxGeometry x="516" y="114" width="120" height="60" as="geometry" />
        </mxCell>
        <mxCell id="1pbeCWkWL_q0rzWC6xPb-27" value="비밀번호 찾기" style="rounded=0;whiteSpace=wrap;html=1;fontFamily=Helvetica;fontSize=12;" parent="1" vertex="1">
          <mxGeometry x="516" y="202" width="120" height="60" as="geometry" />
        </mxCell>
        <mxCell id="1pbeCWkWL_q0rzWC6xPb-42" value="" style="edgeStyle=orthogonalEdgeStyle;rounded=0;orthogonalLoop=1;jettySize=auto;html=1;fontFamily=Helvetica;fontSize=12;" parent="1" target="1pbeCWkWL_q0rzWC6xPb-41" edge="1">
          <mxGeometry relative="1" as="geometry">
            <mxPoint x="473" y="319" as="sourcePoint" />
          </mxGeometry>
        </mxCell>
        <mxCell id="5EfxFIW-50aqXUUSGtKy-4" style="edgeStyle=orthogonalEdgeStyle;rounded=0;orthogonalLoop=1;jettySize=auto;html=1;exitX=0;exitY=0.5;exitDx=0;exitDy=0;startArrow=classic;startFill=1;endArrow=none;endFill=0;fontFamily=Helvetica;fontSize=12;" parent="1" source="1pbeCWkWL_q0rzWC6xPb-34" edge="1">
          <mxGeometry relative="1" as="geometry">
            <mxPoint x="330.7241379310344" y="140.20689655172418" as="targetPoint" />
          </mxGeometry>
        </mxCell>
        <mxCell id="1pbeCWkWL_q0rzWC6xPb-34" value="홈" style="rounded=0;whiteSpace=wrap;html=1;fontFamily=Helvetica;fontSize=12;" parent="1" vertex="1">
          <mxGeometry x="351" y="289" width="120" height="60" as="geometry" />
        </mxCell>
        <mxCell id="1pbeCWkWL_q0rzWC6xPb-41" value="NOW" style="rounded=0;whiteSpace=wrap;html=1;fontFamily=Helvetica;fontSize=12;" parent="1" vertex="1">
          <mxGeometry x="516" y="289" width="120" height="60" as="geometry" />
        </mxCell>
        <mxCell id="1pbeCWkWL_q0rzWC6xPb-53" value="" style="edgeStyle=orthogonalEdgeStyle;rounded=0;orthogonalLoop=1;jettySize=auto;html=1;strokeWidth=1;fontFamily=Helvetica;fontSize=12;" parent="1" source="1pbeCWkWL_q0rzWC6xPb-43" target="1pbeCWkWL_q0rzWC6xPb-52" edge="1">
          <mxGeometry relative="1" as="geometry" />
        </mxCell>
        <mxCell id="1pbeCWkWL_q0rzWC6xPb-43" value="뷰티 ON" style="rounded=0;whiteSpace=wrap;html=1;fontFamily=Helvetica;fontSize=12;" parent="1" vertex="1">
          <mxGeometry x="516" y="377" width="120" height="60" as="geometry" />
        </mxCell>
        <mxCell id="1pbeCWkWL_q0rzWC6xPb-57" value="" style="edgeStyle=orthogonalEdgeStyle;rounded=0;orthogonalLoop=1;jettySize=auto;html=1;strokeWidth=1;fontFamily=Helvetica;fontSize=12;" parent="1" source="1pbeCWkWL_q0rzWC6xPb-45" target="1pbeCWkWL_q0rzWC6xPb-56" edge="1">
          <mxGeometry relative="1" as="geometry" />
        </mxCell>
        <mxCell id="1pbeCWkWL_q0rzWC6xPb-45" value="이벤트" style="rounded=0;whiteSpace=wrap;html=1;fontFamily=Helvetica;fontSize=12;" parent="1" vertex="1">
          <mxGeometry x="516" y="465" width="120" height="60" as="geometry" />
        </mxCell>
        <mxCell id="1pbeCWkWL_q0rzWC6xPb-49" value="" style="edgeStyle=orthogonalEdgeStyle;rounded=0;orthogonalLoop=1;jettySize=auto;html=1;strokeWidth=1;exitX=1;exitY=0.5;exitDx=0;exitDy=0;fontFamily=Helvetica;fontSize=12;" parent="1" source="1pbeCWkWL_q0rzWC6xPb-34" edge="1">
          <mxGeometry relative="1" as="geometry">
            <mxPoint x="474" y="319" as="sourcePoint" />
            <mxPoint x="516" y="403" as="targetPoint" />
            <Array as="points">
              <mxPoint x="492" y="319" />
              <mxPoint x="492" y="403" />
            </Array>
          </mxGeometry>
        </mxCell>
        <mxCell id="1pbeCWkWL_q0rzWC6xPb-50" value="" style="edgeStyle=orthogonalEdgeStyle;rounded=0;orthogonalLoop=1;jettySize=auto;html=1;entryX=0.003;entryY=0.581;entryDx=0;entryDy=0;entryPerimeter=0;fontFamily=Helvetica;fontSize=12;" parent="1" target="1pbeCWkWL_q0rzWC6xPb-45" edge="1">
          <mxGeometry relative="1" as="geometry">
            <mxPoint x="492" y="403" as="sourcePoint" />
            <mxPoint x="514" y="500" as="targetPoint" />
            <Array as="points">
              <mxPoint x="492" y="500" />
            </Array>
          </mxGeometry>
        </mxCell>
        <mxCell id="1pbeCWkWL_q0rzWC6xPb-55" value="" style="edgeStyle=orthogonalEdgeStyle;rounded=0;orthogonalLoop=1;jettySize=auto;html=1;strokeWidth=1;fontFamily=Helvetica;fontSize=12;" parent="1" source="1pbeCWkWL_q0rzWC6xPb-52" target="1pbeCWkWL_q0rzWC6xPb-54" edge="1">
          <mxGeometry relative="1" as="geometry" />
        </mxCell>
        <mxCell id="1pbeCWkWL_q0rzWC6xPb-52" value="주제/에디터 선택" style="rounded=0;whiteSpace=wrap;html=1;fontFamily=Helvetica;fontSize=12;" parent="1" vertex="1">
          <mxGeometry x="677" y="377" width="120" height="60" as="geometry" />
        </mxCell>
        <mxCell id="1pbeCWkWL_q0rzWC6xPb-54" value="컨텐츠 보기" style="rounded=0;whiteSpace=wrap;html=1;fontFamily=Helvetica;fontSize=12;" parent="1" vertex="1">
          <mxGeometry x="838" y="377" width="120" height="60" as="geometry" />
        </mxCell>
        <mxCell id="1pbeCWkWL_q0rzWC6xPb-59" value="" style="edgeStyle=orthogonalEdgeStyle;rounded=0;orthogonalLoop=1;jettySize=auto;html=1;strokeWidth=1;fontFamily=Helvetica;fontSize=12;" parent="1" source="1pbeCWkWL_q0rzWC6xPb-56" target="1pbeCWkWL_q0rzWC6xPb-58" edge="1">
          <mxGeometry relative="1" as="geometry" />
        </mxCell>
        <mxCell id="1pbeCWkWL_q0rzWC6xPb-56" value="이벤트 보기" style="rounded=0;whiteSpace=wrap;html=1;fontFamily=Helvetica;fontSize=12;" parent="1" vertex="1">
          <mxGeometry x="677" y="465" width="120" height="60" as="geometry" />
        </mxCell>
        <mxCell id="1pbeCWkWL_q0rzWC6xPb-58" value="이벤트 신청" style="rounded=0;whiteSpace=wrap;html=1;fontFamily=Helvetica;fontSize=12;" parent="1" vertex="1">
          <mxGeometry x="838" y="465" width="120" height="60" as="geometry" />
        </mxCell>
        <mxCell id="1pbeCWkWL_q0rzWC6xPb-64" value="" style="edgeStyle=orthogonalEdgeStyle;rounded=0;orthogonalLoop=1;jettySize=auto;html=1;fontFamily=Helvetica;fontSize=12;" parent="1" source="1pbeCWkWL_q0rzWC6xPb-65" target="1pbeCWkWL_q0rzWC6xPb-66" edge="1">
          <mxGeometry relative="1" as="geometry" />
        </mxCell>
        <mxCell id="5EfxFIW-50aqXUUSGtKy-5" style="edgeStyle=orthogonalEdgeStyle;rounded=0;orthogonalLoop=1;jettySize=auto;html=1;exitX=0;exitY=0.5;exitDx=0;exitDy=0;startArrow=classic;startFill=1;endArrow=none;endFill=0;fontFamily=Helvetica;fontSize=12;" parent="1" source="1pbeCWkWL_q0rzWC6xPb-65" edge="1">
          <mxGeometry relative="1" as="geometry">
            <mxPoint x="330.7241379310344" y="318.8275862068966" as="targetPoint" />
          </mxGeometry>
        </mxCell>
        <mxCell id="1pbeCWkWL_q0rzWC6xPb-65" value="발견" style="rounded=0;whiteSpace=wrap;html=1;fontFamily=Helvetica;fontSize=12;" parent="1" vertex="1">
          <mxGeometry x="357.35" y="566" width="120" height="60" as="geometry" />
        </mxCell>
        <mxCell id="1pbeCWkWL_q0rzWC6xPb-66" value="랭킹(기본)" style="rounded=0;whiteSpace=wrap;html=1;fontFamily=Helvetica;fontSize=12;" parent="1" vertex="1">
          <mxGeometry x="544.35" y="566" width="120" height="60" as="geometry" />
        </mxCell>
        <mxCell id="1pbeCWkWL_q0rzWC6xPb-70" style="edgeStyle=orthogonalEdgeStyle;rounded=0;orthogonalLoop=1;jettySize=auto;html=1;exitX=0;exitY=0.5;exitDx=0;exitDy=0;startArrow=classic;startFill=1;endArrow=none;endFill=0;fontFamily=Helvetica;fontSize=12;" parent="1" source="1pbeCWkWL_q0rzWC6xPb-71" edge="1">
          <mxGeometry relative="1" as="geometry">
            <mxPoint x="500.35" y="596" as="targetPoint" />
          </mxGeometry>
        </mxCell>
        <mxCell id="1pbeCWkWL_q0rzWC6xPb-71" value="인기신제품" style="rounded=0;whiteSpace=wrap;html=1;fontFamily=Helvetica;fontSize=12;" parent="1" vertex="1">
          <mxGeometry x="540.35" y="878" width="120" height="60" as="geometry" />
        </mxCell>
        <mxCell id="1pbeCWkWL_q0rzWC6xPb-75" style="edgeStyle=orthogonalEdgeStyle;rounded=0;orthogonalLoop=1;jettySize=auto;html=1;exitX=0;exitY=0.5;exitDx=0;exitDy=0;entryX=1;entryY=0.5;entryDx=0;entryDy=0;startArrow=classic;startFill=1;endArrow=none;endFill=0;fontFamily=Helvetica;fontSize=12;" parent="1" source="1pbeCWkWL_q0rzWC6xPb-76" target="1pbeCWkWL_q0rzWC6xPb-66" edge="1">
          <mxGeometry relative="1" as="geometry" />
        </mxCell>
        <mxCell id="1pbeCWkWL_q0rzWC6xPb-76" value="카테고리별 랭킹" style="rounded=0;whiteSpace=wrap;html=1;fontFamily=Helvetica;fontSize=12;" parent="1" vertex="1">
          <mxGeometry x="714.35" y="566" width="120" height="60" as="geometry" />
        </mxCell>
        <mxCell id="a2JjQIw-uPrD1iodRsqR-1" style="edgeStyle=orthogonalEdgeStyle;rounded=0;orthogonalLoop=1;jettySize=auto;html=1;exitX=0;exitY=0.5;exitDx=0;exitDy=0;startArrow=classic;startFill=1;endArrow=none;endFill=0;" edge="1" parent="1" source="1pbeCWkWL_q0rzWC6xPb-80">
          <mxGeometry relative="1" as="geometry">
            <mxPoint x="688" y="598" as="targetPoint" />
          </mxGeometry>
        </mxCell>
        <mxCell id="1pbeCWkWL_q0rzWC6xPb-80" value="브랜드별&lt;br style=&quot;font-size: 12px;&quot;&gt;랭킹" style="rounded=0;whiteSpace=wrap;html=1;fontFamily=Helvetica;fontSize=12;" parent="1" vertex="1">
          <mxGeometry x="714.35" y="656" width="120" height="60" as="geometry" />
        </mxCell>
        <mxCell id="5EfxFIW-50aqXUUSGtKy-2" style="edgeStyle=orthogonalEdgeStyle;rounded=0;orthogonalLoop=1;jettySize=auto;html=1;exitX=0;exitY=0.5;exitDx=0;exitDy=0;startArrow=classic;startFill=1;endArrow=none;endFill=0;fontFamily=Helvetica;fontSize=12;" parent="1" source="1pbeCWkWL_q0rzWC6xPb-90" edge="1">
          <mxGeometry relative="1" as="geometry">
            <mxPoint x="520.35" y="1721" as="targetPoint" />
          </mxGeometry>
        </mxCell>
        <mxCell id="pE4ywuqmk3UyQ6B_5kIM-3" style="edgeStyle=orthogonalEdgeStyle;rounded=0;orthogonalLoop=1;jettySize=auto;html=1;exitX=1;exitY=0.5;exitDx=0;exitDy=0;startArrow=none;startFill=0;endArrow=classic;endFill=1;fontFamily=Helvetica;fontSize=12;" parent="1" source="1pbeCWkWL_q0rzWC6xPb-90" edge="1">
          <mxGeometry relative="1" as="geometry">
            <mxPoint x="732.35" y="1835" as="targetPoint" />
          </mxGeometry>
        </mxCell>
        <mxCell id="1pbeCWkWL_q0rzWC6xPb-90" value="문의하기" style="rounded=0;whiteSpace=wrap;html=1;fontFamily=Helvetica;fontSize=12;" parent="1" vertex="1">
          <mxGeometry x="568.35" y="1805" width="120" height="60" as="geometry" />
        </mxCell>
        <mxCell id="1pbeCWkWL_q0rzWC6xPb-93" value="1:1 문의" style="rounded=0;whiteSpace=wrap;html=1;fontFamily=Helvetica;fontSize=12;" parent="1" vertex="1">
          <mxGeometry x="733.35" y="1809" width="120" height="60" as="geometry" />
        </mxCell>
        <mxCell id="1pbeCWkWL_q0rzWC6xPb-181" style="edgeStyle=orthogonalEdgeStyle;rounded=0;orthogonalLoop=1;jettySize=auto;html=1;exitX=1;exitY=0.5;exitDx=0;exitDy=0;entryX=0;entryY=0.5;entryDx=0;entryDy=0;startArrow=none;startFill=0;endArrow=classic;endFill=1;strokeWidth=1;fontFamily=Helvetica;fontSize=12;" parent="1" source="1pbeCWkWL_q0rzWC6xPb-99" target="1pbeCWkWL_q0rzWC6xPb-101" edge="1">
          <mxGeometry relative="1" as="geometry" />
        </mxCell>
        <mxCell id="5EfxFIW-50aqXUUSGtKy-6" style="edgeStyle=orthogonalEdgeStyle;rounded=0;orthogonalLoop=1;jettySize=auto;html=1;exitX=0;exitY=0.5;exitDx=0;exitDy=0;startArrow=classic;startFill=1;endArrow=none;endFill=0;fontFamily=Helvetica;fontSize=12;" parent="1" source="1pbeCWkWL_q0rzWC6xPb-99" edge="1">
          <mxGeometry relative="1" as="geometry">
            <mxPoint x="330.07413793103444" y="595.6551724137933" as="targetPoint" />
          </mxGeometry>
        </mxCell>
        <mxCell id="1pbeCWkWL_q0rzWC6xPb-99" value="&lt;font style=&quot;font-size: 12px;&quot;&gt;화해 쇼핑&lt;/font&gt;" style="rounded=0;whiteSpace=wrap;html=1;fontFamily=Helvetica;fontSize=12;" parent="1" vertex="1">
          <mxGeometry x="370.35" y="962" width="120" height="60" as="geometry" />
        </mxCell>
        <mxCell id="1pbeCWkWL_q0rzWC6xPb-100" value="" style="edgeStyle=orthogonalEdgeStyle;rounded=0;orthogonalLoop=1;jettySize=auto;html=1;fontSize=12;startArrow=none;startFill=0;endArrow=classic;endFill=1;fontFamily=Helvetica;" parent="1" source="1pbeCWkWL_q0rzWC6xPb-101" target="1pbeCWkWL_q0rzWC6xPb-112" edge="1">
          <mxGeometry relative="1" as="geometry" />
        </mxCell>
        <mxCell id="1pbeCWkWL_q0rzWC6xPb-101" value="쇼핑 홈" style="whiteSpace=wrap;html=1;rounded=0;fontFamily=Helvetica;fontSize=12;" parent="1" vertex="1">
          <mxGeometry x="555.35" y="962" width="120" height="60" as="geometry" />
        </mxCell>
        <mxCell id="1pbeCWkWL_q0rzWC6xPb-111" value="" style="edgeStyle=orthogonalEdgeStyle;rounded=0;orthogonalLoop=1;jettySize=auto;html=1;fontSize=12;startArrow=none;startFill=0;endArrow=classic;endFill=1;fontFamily=Helvetica;" parent="1" source="1pbeCWkWL_q0rzWC6xPb-112" target="1pbeCWkWL_q0rzWC6xPb-118" edge="1">
          <mxGeometry relative="1" as="geometry" />
        </mxCell>
        <mxCell id="1pbeCWkWL_q0rzWC6xPb-112" value="상품 검색" style="whiteSpace=wrap;html=1;rounded=0;fontFamily=Helvetica;fontSize=12;" parent="1" vertex="1">
          <mxGeometry x="755.35" y="962" width="120" height="60" as="geometry" />
        </mxCell>
        <mxCell id="1pbeCWkWL_q0rzWC6xPb-118" value="상품 구매" style="whiteSpace=wrap;html=1;rounded=0;fontFamily=Helvetica;fontSize=12;" parent="1" vertex="1">
          <mxGeometry x="955.35" y="962" width="120" height="60" as="geometry" />
        </mxCell>
        <mxCell id="1pbeCWkWL_q0rzWC6xPb-121" value="" style="edgeStyle=orthogonalEdgeStyle;rounded=0;orthogonalLoop=1;jettySize=auto;html=1;" parent="1" edge="1">
          <mxGeometry relative="1" as="geometry">
            <mxPoint x="737" y="1946" as="sourcePoint" />
          </mxGeometry>
        </mxCell>
        <mxCell id="1pbeCWkWL_q0rzWC6xPb-122" value="" style="edgeStyle=orthogonalEdgeStyle;rounded=0;orthogonalLoop=1;jettySize=auto;html=1;fontSize=12;fontFamily=Helvetica;" parent="1" target="1pbeCWkWL_q0rzWC6xPb-126" edge="1">
          <mxGeometry relative="1" as="geometry">
            <mxPoint x="490.35" y="1238" as="sourcePoint" />
          </mxGeometry>
        </mxCell>
        <mxCell id="pE4ywuqmk3UyQ6B_5kIM-11" style="edgeStyle=orthogonalEdgeStyle;rounded=0;orthogonalLoop=1;jettySize=auto;html=1;exitX=0;exitY=0.5;exitDx=0;exitDy=0;startArrow=classic;startFill=1;endArrow=none;endFill=0;fontFamily=Helvetica;fontSize=12;" parent="1" source="1pbeCWkWL_q0rzWC6xPb-123" edge="1">
          <mxGeometry relative="1" as="geometry">
            <mxPoint x="331.20714285714314" y="990.1428571428573" as="targetPoint" />
          </mxGeometry>
        </mxCell>
        <mxCell id="1pbeCWkWL_q0rzWC6xPb-123" value="&lt;font style=&quot;font-size: 12px;&quot;&gt;my&lt;/font&gt;" style="rounded=0;whiteSpace=wrap;html=1;fontFamily=Helvetica;fontSize=12;" parent="1" vertex="1">
          <mxGeometry x="370.35" y="1208" width="120" height="60" as="geometry" />
        </mxCell>
        <mxCell id="pE4ywuqmk3UyQ6B_5kIM-5" value="" style="edgeStyle=orthogonalEdgeStyle;rounded=0;orthogonalLoop=1;jettySize=auto;html=1;startArrow=none;startFill=0;endArrow=classic;endFill=1;fontFamily=Helvetica;fontSize=12;" parent="1" source="1pbeCWkWL_q0rzWC6xPb-126" target="pE4ywuqmk3UyQ6B_5kIM-4" edge="1">
          <mxGeometry relative="1" as="geometry" />
        </mxCell>
        <mxCell id="1pbeCWkWL_q0rzWC6xPb-126" value="&lt;span style=&quot;font-size: 12px;&quot;&gt;내 정보&lt;/span&gt;" style="rounded=0;whiteSpace=wrap;html=1;fontFamily=Helvetica;fontSize=12;" parent="1" vertex="1">
          <mxGeometry x="570.35" y="1208" width="120" height="60" as="geometry" />
        </mxCell>
        <mxCell id="1pbeCWkWL_q0rzWC6xPb-127" value="" style="edgeStyle=orthogonalEdgeStyle;rounded=0;orthogonalLoop=1;jettySize=auto;html=1;fontSize=12;endArrow=none;endFill=0;fontFamily=Helvetica;" parent="1" source="1pbeCWkWL_q0rzWC6xPb-129" target="1pbeCWkWL_q0rzWC6xPb-145" edge="1">
          <mxGeometry relative="1" as="geometry" />
        </mxCell>
        <mxCell id="1pbeCWkWL_q0rzWC6xPb-128" value="" style="edgeStyle=orthogonalEdgeStyle;rounded=0;orthogonalLoop=1;jettySize=auto;html=1;fontSize=12;endArrow=none;endFill=0;fontFamily=Helvetica;" parent="1" source="1pbeCWkWL_q0rzWC6xPb-129" target="1pbeCWkWL_q0rzWC6xPb-148" edge="1">
          <mxGeometry relative="1" as="geometry">
            <Array as="points">
              <mxPoint x="710.35" y="1328" />
              <mxPoint x="710.35" y="1398" />
            </Array>
          </mxGeometry>
        </mxCell>
        <mxCell id="1pbeCWkWL_q0rzWC6xPb-129" value="&lt;font style=&quot;font-size: 12px;&quot;&gt;화해쇼핑&lt;/font&gt;" style="whiteSpace=wrap;html=1;rounded=0;fontFamily=Helvetica;fontSize=12;" parent="1" vertex="1">
          <mxGeometry x="570.35" y="1298" width="120" height="60" as="geometry" />
        </mxCell>
        <mxCell id="1pbeCWkWL_q0rzWC6xPb-130" value="" style="endArrow=classic;html=1;rounded=0;fontSize=12;entryX=0;entryY=0.5;entryDx=0;entryDy=0;fontFamily=Helvetica;" parent="1" target="1pbeCWkWL_q0rzWC6xPb-129" edge="1">
          <mxGeometry width="50" height="50" relative="1" as="geometry">
            <mxPoint x="520.35" y="1238" as="sourcePoint" />
            <mxPoint x="760.35" y="1338" as="targetPoint" />
            <Array as="points">
              <mxPoint x="520.35" y="1328" />
            </Array>
          </mxGeometry>
        </mxCell>
        <mxCell id="1pbeCWkWL_q0rzWC6xPb-136" style="edgeStyle=orthogonalEdgeStyle;rounded=0;orthogonalLoop=1;jettySize=auto;html=1;exitX=1;exitY=0.5;exitDx=0;exitDy=0;entryX=0;entryY=0.5;entryDx=0;entryDy=0;fontSize=12;endArrow=none;endFill=0;fontFamily=Helvetica;" parent="1" source="1pbeCWkWL_q0rzWC6xPb-138" target="1pbeCWkWL_q0rzWC6xPb-164" edge="1">
          <mxGeometry relative="1" as="geometry" />
        </mxCell>
        <mxCell id="pE4ywuqmk3UyQ6B_5kIM-2" style="edgeStyle=orthogonalEdgeStyle;rounded=0;orthogonalLoop=1;jettySize=auto;html=1;exitX=0;exitY=0.5;exitDx=0;exitDy=0;startArrow=classic;startFill=1;endArrow=none;endFill=0;fontFamily=Helvetica;fontSize=12;" parent="1" source="1pbeCWkWL_q0rzWC6xPb-138" edge="1">
          <mxGeometry relative="1" as="geometry">
            <mxPoint x="520.35" y="1326" as="targetPoint" />
          </mxGeometry>
        </mxCell>
        <mxCell id="1pbeCWkWL_q0rzWC6xPb-138" value="&lt;font style=&quot;font-size: 12px;&quot;&gt;화해이벤트&lt;/font&gt;" style="whiteSpace=wrap;html=1;rounded=0;fontFamily=Helvetica;fontSize=12;" parent="1" vertex="1">
          <mxGeometry x="570.35" y="1691" width="120" height="60" as="geometry" />
        </mxCell>
        <mxCell id="1pbeCWkWL_q0rzWC6xPb-140" value="&lt;span style=&quot;font-size: 12px;&quot;&gt;이벤트 &lt;br style=&quot;font-size: 12px;&quot;&gt;배송지 수정&lt;/span&gt;" style="rounded=0;whiteSpace=wrap;html=1;fontFamily=Helvetica;fontSize=12;" parent="1" vertex="1">
          <mxGeometry x="770.35" y="1131" width="120" height="60" as="geometry" />
        </mxCell>
        <mxCell id="1pbeCWkWL_q0rzWC6xPb-143" value="" style="edgeStyle=orthogonalEdgeStyle;rounded=0;orthogonalLoop=1;jettySize=auto;html=1;fontSize=12;endArrow=none;endFill=0;startArrow=none;entryX=0;entryY=0.5;entryDx=0;entryDy=0;exitX=0;exitY=0.5;exitDx=0;exitDy=0;fontFamily=Helvetica;" parent="1" source="1pbeCWkWL_q0rzWC6xPb-144" edge="1">
          <mxGeometry relative="1" as="geometry">
            <mxPoint x="770.35" y="1081" as="sourcePoint" />
            <mxPoint x="770.35" y="1161" as="targetPoint" />
            <Array as="points">
              <mxPoint x="750.35" y="1081" />
              <mxPoint x="750.35" y="1161" />
            </Array>
          </mxGeometry>
        </mxCell>
        <mxCell id="1pbeCWkWL_q0rzWC6xPb-144" value="내 정보 수정" style="rounded=0;whiteSpace=wrap;html=1;fontSize=12;fontFamily=Helvetica;" parent="1" vertex="1">
          <mxGeometry x="770.35" y="1051" width="120" height="60" as="geometry" />
        </mxCell>
        <mxCell id="1pbeCWkWL_q0rzWC6xPb-145" value="&lt;font style=&quot;font-size: 12px;&quot;&gt;포인트&lt;/font&gt;" style="whiteSpace=wrap;html=1;rounded=0;fontFamily=Helvetica;fontSize=12;" parent="1" vertex="1">
          <mxGeometry x="730.35" y="1298" width="120" height="60" as="geometry" />
        </mxCell>
        <mxCell id="1pbeCWkWL_q0rzWC6xPb-146" style="edgeStyle=orthogonalEdgeStyle;rounded=0;orthogonalLoop=1;jettySize=auto;html=1;exitX=1;exitY=0.5;exitDx=0;exitDy=0;entryX=0;entryY=0.5;entryDx=0;entryDy=0;fontSize=12;endArrow=none;endFill=0;fontFamily=Helvetica;" parent="1" source="1pbeCWkWL_q0rzWC6xPb-148" target="1pbeCWkWL_q0rzWC6xPb-158" edge="1">
          <mxGeometry relative="1" as="geometry" />
        </mxCell>
        <mxCell id="1pbeCWkWL_q0rzWC6xPb-147" style="edgeStyle=orthogonalEdgeStyle;rounded=0;orthogonalLoop=1;jettySize=auto;html=1;exitX=1;exitY=0.5;exitDx=0;exitDy=0;entryX=0;entryY=0.5;entryDx=0;entryDy=0;fontSize=12;endArrow=none;endFill=0;fontFamily=Helvetica;" parent="1" source="1pbeCWkWL_q0rzWC6xPb-148" target="1pbeCWkWL_q0rzWC6xPb-159" edge="1">
          <mxGeometry relative="1" as="geometry" />
        </mxCell>
        <mxCell id="1pbeCWkWL_q0rzWC6xPb-148" value="&lt;font style=&quot;font-size: 12px;&quot;&gt;쿠폰함&lt;/font&gt;" style="whiteSpace=wrap;html=1;rounded=0;fontFamily=Helvetica;fontSize=12;" parent="1" vertex="1">
          <mxGeometry x="730.35" y="1368" width="120" height="60" as="geometry" />
        </mxCell>
        <mxCell id="1pbeCWkWL_q0rzWC6xPb-149" value="" style="endArrow=none;html=1;rounded=0;fontSize=12;entryX=0;entryY=0.5;entryDx=0;entryDy=0;endFill=0;fontFamily=Helvetica;" parent="1" target="1pbeCWkWL_q0rzWC6xPb-152" edge="1">
          <mxGeometry width="50" height="50" relative="1" as="geometry">
            <mxPoint x="710.35" y="1398" as="sourcePoint" />
            <mxPoint x="730.35" y="1468" as="targetPoint" />
            <Array as="points">
              <mxPoint x="710.35" y="1468" />
            </Array>
          </mxGeometry>
        </mxCell>
        <mxCell id="1pbeCWkWL_q0rzWC6xPb-150" style="edgeStyle=orthogonalEdgeStyle;rounded=0;orthogonalLoop=1;jettySize=auto;html=1;exitX=1;exitY=0.5;exitDx=0;exitDy=0;entryX=0;entryY=0.5;entryDx=0;entryDy=0;fontSize=12;endArrow=none;endFill=0;fontFamily=Helvetica;" parent="1" source="1pbeCWkWL_q0rzWC6xPb-152" target="1pbeCWkWL_q0rzWC6xPb-160" edge="1">
          <mxGeometry relative="1" as="geometry" />
        </mxCell>
        <mxCell id="1pbeCWkWL_q0rzWC6xPb-151" style="edgeStyle=orthogonalEdgeStyle;rounded=0;orthogonalLoop=1;jettySize=auto;html=1;exitX=1;exitY=0.5;exitDx=0;exitDy=0;entryX=0;entryY=0.5;entryDx=0;entryDy=0;fontSize=12;endArrow=none;endFill=0;fontFamily=Helvetica;" parent="1" source="1pbeCWkWL_q0rzWC6xPb-152" target="1pbeCWkWL_q0rzWC6xPb-161" edge="1">
          <mxGeometry relative="1" as="geometry" />
        </mxCell>
        <mxCell id="1pbeCWkWL_q0rzWC6xPb-152" value="주문/배송" style="rounded=0;whiteSpace=wrap;html=1;fontSize=12;fontFamily=Helvetica;" parent="1" vertex="1">
          <mxGeometry x="730.35" y="1438" width="120" height="60" as="geometry" />
        </mxCell>
        <mxCell id="1pbeCWkWL_q0rzWC6xPb-153" value="" style="endArrow=none;html=1;rounded=0;fontSize=12;entryX=0;entryY=0.5;entryDx=0;entryDy=0;endFill=0;fontFamily=Helvetica;" parent="1" target="1pbeCWkWL_q0rzWC6xPb-154" edge="1">
          <mxGeometry width="50" height="50" relative="1" as="geometry">
            <mxPoint x="710.35" y="1470" as="sourcePoint" />
            <mxPoint x="730.35" y="1540" as="targetPoint" />
            <Array as="points">
              <mxPoint x="710.35" y="1540" />
            </Array>
          </mxGeometry>
        </mxCell>
        <mxCell id="1pbeCWkWL_q0rzWC6xPb-154" value="찜한상품" style="rounded=0;whiteSpace=wrap;html=1;fontSize=12;fontFamily=Helvetica;" parent="1" vertex="1">
          <mxGeometry x="730.35" y="1510" width="120" height="60" as="geometry" />
        </mxCell>
        <mxCell id="1pbeCWkWL_q0rzWC6xPb-158" value="보유쿠폰" style="rounded=0;whiteSpace=wrap;html=1;fontSize=12;fontFamily=Helvetica;" parent="1" vertex="1">
          <mxGeometry x="900.35" y="1328" width="120" height="60" as="geometry" />
        </mxCell>
        <mxCell id="1pbeCWkWL_q0rzWC6xPb-159" value="쿠폰다운" style="rounded=0;whiteSpace=wrap;html=1;fontSize=12;fontFamily=Helvetica;" parent="1" vertex="1">
          <mxGeometry x="900.35" y="1408" width="120" height="60" as="geometry" />
        </mxCell>
        <mxCell id="1pbeCWkWL_q0rzWC6xPb-160" value="배송조회" style="rounded=0;whiteSpace=wrap;html=1;fontSize=12;fontFamily=Helvetica;" parent="1" vertex="1">
          <mxGeometry x="900.35" y="1478" width="120" height="60" as="geometry" />
        </mxCell>
        <mxCell id="1pbeCWkWL_q0rzWC6xPb-161" value="리뷰작성" style="rounded=0;whiteSpace=wrap;html=1;fontSize=12;fontFamily=Helvetica;" parent="1" vertex="1">
          <mxGeometry x="900.35" y="1543" width="120" height="60" as="geometry" />
        </mxCell>
        <mxCell id="1pbeCWkWL_q0rzWC6xPb-162" style="edgeStyle=orthogonalEdgeStyle;rounded=0;orthogonalLoop=1;jettySize=auto;html=1;exitX=1;exitY=0.5;exitDx=0;exitDy=0;entryX=0;entryY=0.5;entryDx=0;entryDy=0;fontSize=12;endArrow=none;endFill=0;fontFamily=Helvetica;" parent="1" source="1pbeCWkWL_q0rzWC6xPb-164" target="1pbeCWkWL_q0rzWC6xPb-166" edge="1">
          <mxGeometry relative="1" as="geometry" />
        </mxCell>
        <mxCell id="1pbeCWkWL_q0rzWC6xPb-163" style="edgeStyle=orthogonalEdgeStyle;rounded=0;orthogonalLoop=1;jettySize=auto;html=1;exitX=1;exitY=0.5;exitDx=0;exitDy=0;entryX=0;entryY=0.5;entryDx=0;entryDy=0;fontSize=12;endArrow=none;endFill=0;fontFamily=Helvetica;" parent="1" source="1pbeCWkWL_q0rzWC6xPb-164" target="1pbeCWkWL_q0rzWC6xPb-167" edge="1">
          <mxGeometry relative="1" as="geometry" />
        </mxCell>
        <mxCell id="1pbeCWkWL_q0rzWC6xPb-164" value="이벤트&lt;br style=&quot;font-size: 12px;&quot;&gt;신청내역" style="rounded=0;whiteSpace=wrap;html=1;fontSize=12;fontFamily=Helvetica;" parent="1" vertex="1">
          <mxGeometry x="740.35" y="1691" width="120" height="60" as="geometry" />
        </mxCell>
        <mxCell id="1pbeCWkWL_q0rzWC6xPb-166" value="신청한&lt;br style=&quot;font-size: 12px;&quot;&gt;이벤트" style="rounded=0;whiteSpace=wrap;html=1;fontSize=12;fontFamily=Helvetica;" parent="1" vertex="1">
          <mxGeometry x="910.35" y="1641" width="120" height="60" as="geometry" />
        </mxCell>
        <mxCell id="1pbeCWkWL_q0rzWC6xPb-167" value="당첨된&lt;br style=&quot;font-size: 12px;&quot;&gt;이벤트" style="rounded=0;whiteSpace=wrap;html=1;fontSize=12;fontFamily=Helvetica;" parent="1" vertex="1">
          <mxGeometry x="910.35" y="1721" width="120" height="60" as="geometry" />
        </mxCell>
        <mxCell id="pE4ywuqmk3UyQ6B_5kIM-8" value="" style="edgeStyle=orthogonalEdgeStyle;rounded=0;orthogonalLoop=1;jettySize=auto;html=1;startArrow=none;startFill=0;endArrow=classic;endFill=1;fontFamily=Helvetica;fontSize=12;" parent="1" source="pE4ywuqmk3UyQ6B_5kIM-4" target="pE4ywuqmk3UyQ6B_5kIM-7" edge="1">
          <mxGeometry relative="1" as="geometry" />
        </mxCell>
        <mxCell id="pE4ywuqmk3UyQ6B_5kIM-4" value="&lt;span style=&quot;font-size: 12px;&quot;&gt;설정&lt;/span&gt;" style="rounded=0;whiteSpace=wrap;html=1;fontFamily=Helvetica;fontSize=12;" parent="1" vertex="1">
          <mxGeometry x="770.35" y="1208" width="120" height="60" as="geometry" />
        </mxCell>
        <mxCell id="pE4ywuqmk3UyQ6B_5kIM-7" value="&lt;span style=&quot;font-size: 12px;&quot;&gt;탈퇴하기&lt;/span&gt;" style="rounded=0;whiteSpace=wrap;html=1;fontFamily=Helvetica;fontSize=12;" parent="1" vertex="1">
          <mxGeometry x="986.35" y="1156" width="120" height="60" as="geometry" />
        </mxCell>
        <mxCell id="pE4ywuqmk3UyQ6B_5kIM-10" style="edgeStyle=orthogonalEdgeStyle;rounded=0;orthogonalLoop=1;jettySize=auto;html=1;exitX=0;exitY=0.5;exitDx=0;exitDy=0;startArrow=classic;startFill=1;endArrow=none;endFill=0;fontFamily=Helvetica;fontSize=12;" parent="1" source="pE4ywuqmk3UyQ6B_5kIM-9" edge="1">
          <mxGeometry relative="1" as="geometry">
            <mxPoint x="940.35" y="1238" as="targetPoint" />
          </mxGeometry>
        </mxCell>
        <mxCell id="pE4ywuqmk3UyQ6B_5kIM-9" value="&lt;span style=&quot;font-size: 12px;&quot;&gt;로그아웃&lt;/span&gt;" style="rounded=0;whiteSpace=wrap;html=1;fontFamily=Helvetica;fontSize=12;" parent="1" vertex="1">
          <mxGeometry x="988.35" y="1242" width="120" height="60" as="geometry" />
        </mxCell>
        <mxCell id="a2JjQIw-uPrD1iodRsqR-2" value="" style="endArrow=classic;html=1;rounded=0;endFill=1;" edge="1" parent="1">
          <mxGeometry width="50" height="50" relative="1" as="geometry">
            <mxPoint x="721" y="1238" as="sourcePoint" />
            <mxPoint x="751" y="1119" as="targetPoint" />
            <Array as="points">
              <mxPoint x="721" y="1119" />
            </Array>
          </mxGeometry>
        </mxCell>
      </root>
    </mxGraphModel>
  </diagram>
</mxfile>
